<mxfile host="app.diagrams.net" agent="Mozilla/5.0 (Windows NT 10.0; Win64; x64) AppleWebKit/537.36 (KHTML, like Gecko) Chrome/137.0.0.0 Safari/537.36" version="27.1.6">
  <diagram name="페이지-1" id="3xPbqhPziAYt6Hv0g786">
    <mxGraphModel dx="2583" dy="2548" grid="1" gridSize="10" guides="1" tooltips="1" connect="1" arrows="1" fold="1" page="1" pageScale="1" pageWidth="827" pageHeight="1169" math="0" shadow="0">
      <root>
        <mxCell id="0" />
        <mxCell id="1" parent="0" />
        <mxCell id="Vklywvuwka15X0MRIOZ4-3" style="edgeStyle=orthogonalEdgeStyle;rounded=0;orthogonalLoop=1;jettySize=auto;html=1;exitX=0.5;exitY=1;exitDx=0;exitDy=0;" edge="1" parent="1" source="Vklywvuwka15X0MRIOZ4-1" target="Vklywvuwka15X0MRIOZ4-2">
          <mxGeometry relative="1" as="geometry" />
        </mxCell>
        <mxCell id="Vklywvuwka15X0MRIOZ4-1" value="쿠키 데이터&amp;nbsp;&lt;div&gt;사용 권한 요청&lt;/div&gt;" style="rounded=0;whiteSpace=wrap;html=1;" vertex="1" parent="1">
          <mxGeometry x="354" y="140" width="120" height="60" as="geometry" />
        </mxCell>
        <mxCell id="Vklywvuwka15X0MRIOZ4-5" value="NO" style="edgeStyle=orthogonalEdgeStyle;rounded=0;orthogonalLoop=1;jettySize=auto;html=1;exitX=1;exitY=0.5;exitDx=0;exitDy=0;entryX=1;entryY=0.5;entryDx=0;entryDy=0;" edge="1" parent="1" source="Vklywvuwka15X0MRIOZ4-2" target="Vklywvuwka15X0MRIOZ4-1">
          <mxGeometry relative="1" as="geometry">
            <Array as="points">
              <mxPoint x="530" y="300" />
              <mxPoint x="530" y="170" />
            </Array>
          </mxGeometry>
        </mxCell>
        <mxCell id="Vklywvuwka15X0MRIOZ4-7" value="YES" style="edgeStyle=orthogonalEdgeStyle;rounded=0;orthogonalLoop=1;jettySize=auto;html=1;exitX=0.5;exitY=1;exitDx=0;exitDy=0;" edge="1" parent="1" source="Vklywvuwka15X0MRIOZ4-2" target="Vklywvuwka15X0MRIOZ4-25">
          <mxGeometry relative="1" as="geometry">
            <mxPoint x="414" y="400" as="targetPoint" />
          </mxGeometry>
        </mxCell>
        <mxCell id="Vklywvuwka15X0MRIOZ4-2" value="승인?" style="rhombus;whiteSpace=wrap;html=1;" vertex="1" parent="1">
          <mxGeometry x="374" y="260" width="80" height="80" as="geometry" />
        </mxCell>
        <mxCell id="Vklywvuwka15X0MRIOZ4-18" style="edgeStyle=orthogonalEdgeStyle;rounded=0;orthogonalLoop=1;jettySize=auto;html=1;exitX=0.5;exitY=1;exitDx=0;exitDy=0;entryX=0.5;entryY=0;entryDx=0;entryDy=0;" edge="1" parent="1" source="Vklywvuwka15X0MRIOZ4-16" target="Vklywvuwka15X0MRIOZ4-17">
          <mxGeometry relative="1" as="geometry" />
        </mxCell>
        <mxCell id="Vklywvuwka15X0MRIOZ4-16" value="접속" style="rounded=0;whiteSpace=wrap;html=1;" vertex="1" parent="1">
          <mxGeometry x="354" y="-140" width="120" height="60" as="geometry" />
        </mxCell>
        <mxCell id="Vklywvuwka15X0MRIOZ4-19" value="YES" style="edgeStyle=orthogonalEdgeStyle;rounded=0;orthogonalLoop=1;jettySize=auto;html=1;exitX=0.5;exitY=1;exitDx=0;exitDy=0;" edge="1" parent="1" source="Vklywvuwka15X0MRIOZ4-17" target="Vklywvuwka15X0MRIOZ4-1">
          <mxGeometry relative="1" as="geometry" />
        </mxCell>
        <mxCell id="Vklywvuwka15X0MRIOZ4-29" style="edgeStyle=orthogonalEdgeStyle;rounded=0;orthogonalLoop=1;jettySize=auto;html=1;exitX=1;exitY=0.5;exitDx=0;exitDy=0;entryX=1;entryY=0.5;entryDx=0;entryDy=0;" edge="1" parent="1" source="Vklywvuwka15X0MRIOZ4-17" target="Vklywvuwka15X0MRIOZ4-20">
          <mxGeometry relative="1" as="geometry">
            <Array as="points">
              <mxPoint x="570" y="30" />
              <mxPoint x="570" y="585" />
            </Array>
          </mxGeometry>
        </mxCell>
        <mxCell id="Vklywvuwka15X0MRIOZ4-30" value="NO" style="edgeLabel;html=1;align=center;verticalAlign=middle;resizable=0;points=[];" vertex="1" connectable="0" parent="Vklywvuwka15X0MRIOZ4-29">
          <mxGeometry x="0.0952" y="1" relative="1" as="geometry">
            <mxPoint as="offset" />
          </mxGeometry>
        </mxCell>
        <mxCell id="Vklywvuwka15X0MRIOZ4-17" value="최초 접속?" style="rhombus;whiteSpace=wrap;html=1;" vertex="1" parent="1">
          <mxGeometry x="374" y="-10" width="80" height="80" as="geometry" />
        </mxCell>
        <mxCell id="Vklywvuwka15X0MRIOZ4-23" style="edgeStyle=orthogonalEdgeStyle;rounded=0;orthogonalLoop=1;jettySize=auto;html=1;exitX=0.5;exitY=1;exitDx=0;exitDy=0;entryX=0.5;entryY=0;entryDx=0;entryDy=0;" edge="1" parent="1" source="Vklywvuwka15X0MRIOZ4-20" target="Vklywvuwka15X0MRIOZ4-22">
          <mxGeometry relative="1" as="geometry" />
        </mxCell>
        <mxCell id="Vklywvuwka15X0MRIOZ4-20" value="사용자 파일&lt;div&gt;접근&lt;/div&gt;" style="rounded=0;whiteSpace=wrap;html=1;" vertex="1" parent="1">
          <mxGeometry x="354" y="555" width="120" height="60" as="geometry" />
        </mxCell>
        <mxCell id="Vklywvuwka15X0MRIOZ4-38" style="edgeStyle=orthogonalEdgeStyle;rounded=0;orthogonalLoop=1;jettySize=auto;html=1;exitX=0.5;exitY=1;exitDx=0;exitDy=0;" edge="1" parent="1" source="Vklywvuwka15X0MRIOZ4-22" target="Vklywvuwka15X0MRIOZ4-41">
          <mxGeometry relative="1" as="geometry">
            <mxPoint x="414" y="840" as="targetPoint" />
          </mxGeometry>
        </mxCell>
        <mxCell id="Vklywvuwka15X0MRIOZ4-39" value="YES" style="edgeLabel;html=1;align=center;verticalAlign=middle;resizable=0;points=[];" vertex="1" connectable="0" parent="Vklywvuwka15X0MRIOZ4-38">
          <mxGeometry x="-0.3429" y="2" relative="1" as="geometry">
            <mxPoint as="offset" />
          </mxGeometry>
        </mxCell>
        <mxCell id="Vklywvuwka15X0MRIOZ4-64" style="edgeStyle=orthogonalEdgeStyle;rounded=0;orthogonalLoop=1;jettySize=auto;html=1;exitX=1;exitY=0.5;exitDx=0;exitDy=0;entryX=1;entryY=0.5;entryDx=0;entryDy=0;" edge="1" parent="1" source="Vklywvuwka15X0MRIOZ4-22" target="Vklywvuwka15X0MRIOZ4-50">
          <mxGeometry relative="1" as="geometry">
            <Array as="points">
              <mxPoint x="780" y="690" />
              <mxPoint x="780" y="1220" />
            </Array>
          </mxGeometry>
        </mxCell>
        <mxCell id="Vklywvuwka15X0MRIOZ4-65" value="NO" style="edgeLabel;html=1;align=center;verticalAlign=middle;resizable=0;points=[];" vertex="1" connectable="0" parent="Vklywvuwka15X0MRIOZ4-64">
          <mxGeometry x="0.1242" y="-2" relative="1" as="geometry">
            <mxPoint as="offset" />
          </mxGeometry>
        </mxCell>
        <mxCell id="Vklywvuwka15X0MRIOZ4-22" value="7주일&amp;nbsp;&lt;div&gt;지남?&lt;/div&gt;" style="rhombus;whiteSpace=wrap;html=1;" vertex="1" parent="1">
          <mxGeometry x="374" y="650" width="80" height="80" as="geometry" />
        </mxCell>
        <mxCell id="Vklywvuwka15X0MRIOZ4-31" style="edgeStyle=orthogonalEdgeStyle;rounded=0;orthogonalLoop=1;jettySize=auto;html=1;exitX=0.5;exitY=1;exitDx=0;exitDy=0;entryX=0.5;entryY=0;entryDx=0;entryDy=0;" edge="1" parent="1" source="Vklywvuwka15X0MRIOZ4-25" target="Vklywvuwka15X0MRIOZ4-20">
          <mxGeometry relative="1" as="geometry" />
        </mxCell>
        <mxCell id="Vklywvuwka15X0MRIOZ4-32" value="YES" style="edgeLabel;html=1;align=center;verticalAlign=middle;resizable=0;points=[];" vertex="1" connectable="0" parent="Vklywvuwka15X0MRIOZ4-31">
          <mxGeometry x="-0.0667" y="2" relative="1" as="geometry">
            <mxPoint as="offset" />
          </mxGeometry>
        </mxCell>
        <mxCell id="Vklywvuwka15X0MRIOZ4-46" style="edgeStyle=orthogonalEdgeStyle;rounded=0;orthogonalLoop=1;jettySize=auto;html=1;exitX=0;exitY=0.5;exitDx=0;exitDy=0;entryX=0;entryY=0.5;entryDx=0;entryDy=0;" edge="1" parent="1" source="Vklywvuwka15X0MRIOZ4-25" target="Vklywvuwka15X0MRIOZ4-41">
          <mxGeometry relative="1" as="geometry">
            <Array as="points">
              <mxPoint x="280" y="440" />
              <mxPoint x="280" y="830" />
            </Array>
          </mxGeometry>
        </mxCell>
        <mxCell id="Vklywvuwka15X0MRIOZ4-47" value="NO" style="edgeLabel;html=1;align=center;verticalAlign=middle;resizable=0;points=[];" vertex="1" connectable="0" parent="Vklywvuwka15X0MRIOZ4-46">
          <mxGeometry x="0.0255" y="4" relative="1" as="geometry">
            <mxPoint as="offset" />
          </mxGeometry>
        </mxCell>
        <mxCell id="Vklywvuwka15X0MRIOZ4-25" value="사용자 파일&lt;div&gt;존재?&lt;/div&gt;" style="rhombus;whiteSpace=wrap;html=1;" vertex="1" parent="1">
          <mxGeometry x="374" y="400" width="80" height="80" as="geometry" />
        </mxCell>
        <mxCell id="Vklywvuwka15X0MRIOZ4-44" style="edgeStyle=orthogonalEdgeStyle;rounded=0;orthogonalLoop=1;jettySize=auto;html=1;exitX=0.5;exitY=1;exitDx=0;exitDy=0;entryX=0.5;entryY=0;entryDx=0;entryDy=0;" edge="1" parent="1" source="Vklywvuwka15X0MRIOZ4-41" target="Vklywvuwka15X0MRIOZ4-43">
          <mxGeometry relative="1" as="geometry" />
        </mxCell>
        <mxCell id="Vklywvuwka15X0MRIOZ4-45" value="YES" style="edgeLabel;html=1;align=center;verticalAlign=middle;resizable=0;points=[];" vertex="1" connectable="0" parent="Vklywvuwka15X0MRIOZ4-44">
          <mxGeometry x="-0.2" y="1" relative="1" as="geometry">
            <mxPoint as="offset" />
          </mxGeometry>
        </mxCell>
        <mxCell id="Vklywvuwka15X0MRIOZ4-60" style="edgeStyle=orthogonalEdgeStyle;rounded=0;orthogonalLoop=1;jettySize=auto;html=1;exitX=1;exitY=0.5;exitDx=0;exitDy=0;" edge="1" parent="1" source="Vklywvuwka15X0MRIOZ4-41" target="Vklywvuwka15X0MRIOZ4-59">
          <mxGeometry relative="1" as="geometry" />
        </mxCell>
        <mxCell id="Vklywvuwka15X0MRIOZ4-61" value="NO" style="edgeLabel;html=1;align=center;verticalAlign=middle;resizable=0;points=[];" vertex="1" connectable="0" parent="Vklywvuwka15X0MRIOZ4-60">
          <mxGeometry x="0.3169" y="-2" relative="1" as="geometry">
            <mxPoint as="offset" />
          </mxGeometry>
        </mxCell>
        <mxCell id="Vklywvuwka15X0MRIOZ4-41" value="쿠키 데이터&lt;div&gt;존재?&lt;/div&gt;" style="rhombus;whiteSpace=wrap;html=1;" vertex="1" parent="1">
          <mxGeometry x="374" y="790" width="80" height="80" as="geometry" />
        </mxCell>
        <mxCell id="Vklywvuwka15X0MRIOZ4-49" style="edgeStyle=orthogonalEdgeStyle;rounded=0;orthogonalLoop=1;jettySize=auto;html=1;exitX=0.5;exitY=1;exitDx=0;exitDy=0;entryX=0.5;entryY=0;entryDx=0;entryDy=0;" edge="1" parent="1" source="Vklywvuwka15X0MRIOZ4-43" target="Vklywvuwka15X0MRIOZ4-48">
          <mxGeometry relative="1" as="geometry" />
        </mxCell>
        <mxCell id="Vklywvuwka15X0MRIOZ4-43" value="쿠키 데이터 분석" style="rounded=0;whiteSpace=wrap;html=1;" vertex="1" parent="1">
          <mxGeometry x="354" y="930" width="120" height="60" as="geometry" />
        </mxCell>
        <mxCell id="Vklywvuwka15X0MRIOZ4-67" style="edgeStyle=orthogonalEdgeStyle;rounded=0;orthogonalLoop=1;jettySize=auto;html=1;exitX=0.5;exitY=1;exitDx=0;exitDy=0;entryX=0;entryY=0.5;entryDx=0;entryDy=0;" edge="1" parent="1" source="Vklywvuwka15X0MRIOZ4-48" target="Vklywvuwka15X0MRIOZ4-50">
          <mxGeometry relative="1" as="geometry" />
        </mxCell>
        <mxCell id="Vklywvuwka15X0MRIOZ4-48" value="사용자 파일 생성" style="rounded=0;whiteSpace=wrap;html=1;" vertex="1" parent="1">
          <mxGeometry x="354" y="1040" width="120" height="60" as="geometry" />
        </mxCell>
        <mxCell id="Vklywvuwka15X0MRIOZ4-69" style="edgeStyle=orthogonalEdgeStyle;rounded=0;orthogonalLoop=1;jettySize=auto;html=1;exitX=0.5;exitY=1;exitDx=0;exitDy=0;" edge="1" parent="1" source="Vklywvuwka15X0MRIOZ4-50" target="Vklywvuwka15X0MRIOZ4-68">
          <mxGeometry relative="1" as="geometry" />
        </mxCell>
        <mxCell id="Vklywvuwka15X0MRIOZ4-50" value="뉴스 데이터 크롤링" style="rounded=0;whiteSpace=wrap;html=1;" vertex="1" parent="1">
          <mxGeometry x="550" y="1190" width="120" height="60" as="geometry" />
        </mxCell>
        <mxCell id="Vklywvuwka15X0MRIOZ4-66" style="edgeStyle=orthogonalEdgeStyle;rounded=0;orthogonalLoop=1;jettySize=auto;html=1;exitX=0.5;exitY=1;exitDx=0;exitDy=0;entryX=0.5;entryY=0;entryDx=0;entryDy=0;" edge="1" parent="1" source="Vklywvuwka15X0MRIOZ4-59" target="Vklywvuwka15X0MRIOZ4-50">
          <mxGeometry relative="1" as="geometry" />
        </mxCell>
        <mxCell id="Vklywvuwka15X0MRIOZ4-59" value="디폴트 사용자 파일&amp;nbsp;&lt;div&gt;생성&lt;/div&gt;" style="rounded=0;whiteSpace=wrap;html=1;" vertex="1" parent="1">
          <mxGeometry x="550" y="1040" width="120" height="60" as="geometry" />
        </mxCell>
        <mxCell id="Vklywvuwka15X0MRIOZ4-71" style="edgeStyle=orthogonalEdgeStyle;rounded=0;orthogonalLoop=1;jettySize=auto;html=1;exitX=0.5;exitY=1;exitDx=0;exitDy=0;entryX=0.5;entryY=0;entryDx=0;entryDy=0;" edge="1" parent="1" source="Vklywvuwka15X0MRIOZ4-68" target="Vklywvuwka15X0MRIOZ4-70">
          <mxGeometry relative="1" as="geometry" />
        </mxCell>
        <mxCell id="Vklywvuwka15X0MRIOZ4-68" value="사용자 파일 기반&lt;div&gt;뉴스 데이터 요약&lt;/div&gt;" style="rounded=0;whiteSpace=wrap;html=1;" vertex="1" parent="1">
          <mxGeometry x="550" y="1300" width="120" height="60" as="geometry" />
        </mxCell>
        <mxCell id="Vklywvuwka15X0MRIOZ4-73" style="edgeStyle=orthogonalEdgeStyle;rounded=0;orthogonalLoop=1;jettySize=auto;html=1;exitX=0.5;exitY=1;exitDx=0;exitDy=0;" edge="1" parent="1" source="Vklywvuwka15X0MRIOZ4-70" target="Vklywvuwka15X0MRIOZ4-72">
          <mxGeometry relative="1" as="geometry" />
        </mxCell>
        <mxCell id="Vklywvuwka15X0MRIOZ4-70" value="요약된 내용을 바탕으로&lt;div&gt;재질의&lt;/div&gt;" style="rounded=0;whiteSpace=wrap;html=1;" vertex="1" parent="1">
          <mxGeometry x="550" y="1410" width="120" height="60" as="geometry" />
        </mxCell>
        <mxCell id="Vklywvuwka15X0MRIOZ4-72" value="뉴스 데이터&amp;nbsp;&lt;div&gt;요약본 출력&lt;/div&gt;" style="rounded=0;whiteSpace=wrap;html=1;" vertex="1" parent="1">
          <mxGeometry x="550" y="1530" width="120" height="60" as="geometry" />
        </mxCell>
        <mxCell id="Vklywvuwka15X0MRIOZ4-75" value="시스템 모듈" style="swimlane;whiteSpace=wrap;html=1;" vertex="1" parent="1">
          <mxGeometry x="190" y="-250" width="820" height="1890" as="geometry" />
        </mxCell>
        <mxCell id="Vklywvuwka15X0MRIOZ4-80" value="메인 모듈" style="swimlane;fontStyle=0;childLayout=stackLayout;horizontal=1;startSize=30;horizontalStack=0;resizeParent=1;resizeParentMax=0;resizeLast=0;collapsible=1;marginBottom=0;whiteSpace=wrap;html=1;" vertex="1" parent="1">
          <mxGeometry x="1490" y="430" width="140" height="150" as="geometry" />
        </mxCell>
        <mxCell id="Vklywvuwka15X0MRIOZ4-104" value="외부&amp;nbsp; API 접근" style="text;strokeColor=none;fillColor=none;align=left;verticalAlign=middle;spacingLeft=4;spacingRight=4;overflow=hidden;points=[[0,0.5],[1,0.5]];portConstraint=eastwest;rotatable=0;whiteSpace=wrap;html=1;" vertex="1" parent="Vklywvuwka15X0MRIOZ4-80">
          <mxGeometry y="30" width="140" height="30" as="geometry" />
        </mxCell>
        <mxCell id="Vklywvuwka15X0MRIOZ4-113" value="인터페이스" style="text;strokeColor=none;fillColor=none;align=left;verticalAlign=middle;spacingLeft=4;spacingRight=4;overflow=hidden;points=[[0,0.5],[1,0.5]];portConstraint=eastwest;rotatable=0;whiteSpace=wrap;html=1;" vertex="1" parent="Vklywvuwka15X0MRIOZ4-80">
          <mxGeometry y="60" width="140" height="30" as="geometry" />
        </mxCell>
        <mxCell id="Vklywvuwka15X0MRIOZ4-140" value="뉴스 요약본" style="text;strokeColor=none;fillColor=none;align=left;verticalAlign=middle;spacingLeft=4;spacingRight=4;overflow=hidden;points=[[0,0.5],[1,0.5]];portConstraint=eastwest;rotatable=0;whiteSpace=wrap;html=1;" vertex="1" parent="Vklywvuwka15X0MRIOZ4-80">
          <mxGeometry y="90" width="140" height="30" as="geometry" />
        </mxCell>
        <mxCell id="Vklywvuwka15X0MRIOZ4-83" value="시스템 모듈" style="text;strokeColor=none;fillColor=none;align=left;verticalAlign=middle;spacingLeft=4;spacingRight=4;overflow=hidden;points=[[0,0.5],[1,0.5]];portConstraint=eastwest;rotatable=0;whiteSpace=wrap;html=1;" vertex="1" parent="Vklywvuwka15X0MRIOZ4-80">
          <mxGeometry y="120" width="140" height="30" as="geometry" />
        </mxCell>
        <mxCell id="Vklywvuwka15X0MRIOZ4-85" value="스마트폰(상속)" style="swimlane;fontStyle=0;childLayout=stackLayout;horizontal=1;startSize=30;horizontalStack=0;resizeParent=1;resizeParentMax=0;resizeLast=0;collapsible=1;marginBottom=0;whiteSpace=wrap;html=1;" vertex="1" parent="1">
          <mxGeometry x="1980" y="350" width="140" height="120" as="geometry" />
        </mxCell>
        <mxCell id="Vklywvuwka15X0MRIOZ4-142" value="출력" style="text;strokeColor=none;fillColor=none;align=left;verticalAlign=middle;spacingLeft=4;spacingRight=4;overflow=hidden;points=[[0,0.5],[1,0.5]];portConstraint=eastwest;rotatable=0;whiteSpace=wrap;html=1;" vertex="1" parent="Vklywvuwka15X0MRIOZ4-85">
          <mxGeometry y="30" width="140" height="30" as="geometry" />
        </mxCell>
        <mxCell id="Vklywvuwka15X0MRIOZ4-153" value="위젯" style="text;strokeColor=none;fillColor=none;align=left;verticalAlign=middle;spacingLeft=4;spacingRight=4;overflow=hidden;points=[[0,0.5],[1,0.5]];portConstraint=eastwest;rotatable=0;whiteSpace=wrap;html=1;" vertex="1" parent="Vklywvuwka15X0MRIOZ4-85">
          <mxGeometry y="60" width="140" height="30" as="geometry" />
        </mxCell>
        <mxCell id="Vklywvuwka15X0MRIOZ4-86" value="호환 기기 목록" style="text;strokeColor=none;fillColor=none;align=left;verticalAlign=middle;spacingLeft=4;spacingRight=4;overflow=hidden;points=[[0,0.5],[1,0.5]];portConstraint=eastwest;rotatable=0;whiteSpace=wrap;html=1;" vertex="1" parent="Vklywvuwka15X0MRIOZ4-85">
          <mxGeometry y="90" width="140" height="30" as="geometry" />
        </mxCell>
        <mxCell id="Vklywvuwka15X0MRIOZ4-89" value="태블릿(상속)" style="swimlane;fontStyle=0;childLayout=stackLayout;horizontal=1;startSize=30;horizontalStack=0;resizeParent=1;resizeParentMax=0;resizeLast=0;collapsible=1;marginBottom=0;whiteSpace=wrap;html=1;" vertex="1" parent="1">
          <mxGeometry x="1980" y="510" width="140" height="120" as="geometry" />
        </mxCell>
        <mxCell id="Vklywvuwka15X0MRIOZ4-143" value="출력" style="text;strokeColor=none;fillColor=none;align=left;verticalAlign=middle;spacingLeft=4;spacingRight=4;overflow=hidden;points=[[0,0.5],[1,0.5]];portConstraint=eastwest;rotatable=0;whiteSpace=wrap;html=1;" vertex="1" parent="Vklywvuwka15X0MRIOZ4-89">
          <mxGeometry y="30" width="140" height="30" as="geometry" />
        </mxCell>
        <mxCell id="Vklywvuwka15X0MRIOZ4-154" value="위젯" style="text;strokeColor=none;fillColor=none;align=left;verticalAlign=middle;spacingLeft=4;spacingRight=4;overflow=hidden;points=[[0,0.5],[1,0.5]];portConstraint=eastwest;rotatable=0;whiteSpace=wrap;html=1;" vertex="1" parent="Vklywvuwka15X0MRIOZ4-89">
          <mxGeometry y="60" width="140" height="30" as="geometry" />
        </mxCell>
        <mxCell id="Vklywvuwka15X0MRIOZ4-90" value="호환 기기 목록" style="text;strokeColor=none;fillColor=none;align=left;verticalAlign=middle;spacingLeft=4;spacingRight=4;overflow=hidden;points=[[0,0.5],[1,0.5]];portConstraint=eastwest;rotatable=0;whiteSpace=wrap;html=1;" vertex="1" parent="Vklywvuwka15X0MRIOZ4-89">
          <mxGeometry y="90" width="140" height="30" as="geometry" />
        </mxCell>
        <mxCell id="Vklywvuwka15X0MRIOZ4-93" value="PC(상속)" style="swimlane;fontStyle=0;childLayout=stackLayout;horizontal=1;startSize=30;horizontalStack=0;resizeParent=1;resizeParentMax=0;resizeLast=0;collapsible=1;marginBottom=0;whiteSpace=wrap;html=1;" vertex="1" parent="1">
          <mxGeometry x="1980" y="650" width="140" height="90" as="geometry" />
        </mxCell>
        <mxCell id="Vklywvuwka15X0MRIOZ4-144" value="출력" style="text;strokeColor=none;fillColor=none;align=left;verticalAlign=middle;spacingLeft=4;spacingRight=4;overflow=hidden;points=[[0,0.5],[1,0.5]];portConstraint=eastwest;rotatable=0;whiteSpace=wrap;html=1;" vertex="1" parent="Vklywvuwka15X0MRIOZ4-93">
          <mxGeometry y="30" width="140" height="30" as="geometry" />
        </mxCell>
        <mxCell id="Vklywvuwka15X0MRIOZ4-94" value="호환 기기 목록" style="text;strokeColor=none;fillColor=none;align=left;verticalAlign=middle;spacingLeft=4;spacingRight=4;overflow=hidden;points=[[0,0.5],[1,0.5]];portConstraint=eastwest;rotatable=0;whiteSpace=wrap;html=1;" vertex="1" parent="Vklywvuwka15X0MRIOZ4-93">
          <mxGeometry y="60" width="140" height="30" as="geometry" />
        </mxCell>
        <mxCell id="Vklywvuwka15X0MRIOZ4-105" value="시스템 모듈" style="swimlane;fontStyle=0;childLayout=stackLayout;horizontal=1;startSize=30;horizontalStack=0;resizeParent=1;resizeParentMax=0;resizeLast=0;collapsible=1;marginBottom=0;whiteSpace=wrap;html=1;" vertex="1" parent="1">
          <mxGeometry x="1160" y="700" width="140" height="90" as="geometry" />
        </mxCell>
        <mxCell id="Vklywvuwka15X0MRIOZ4-106" value="사용자 파일 생성/관리" style="text;strokeColor=none;fillColor=none;align=left;verticalAlign=middle;spacingLeft=4;spacingRight=4;overflow=hidden;points=[[0,0.5],[1,0.5]];portConstraint=eastwest;rotatable=0;whiteSpace=wrap;html=1;" vertex="1" parent="Vklywvuwka15X0MRIOZ4-105">
          <mxGeometry y="30" width="140" height="30" as="geometry" />
        </mxCell>
        <mxCell id="Vklywvuwka15X0MRIOZ4-107" value="쿠키 데이터 분석/관리" style="text;strokeColor=none;fillColor=none;align=left;verticalAlign=middle;spacingLeft=4;spacingRight=4;overflow=hidden;points=[[0,0.5],[1,0.5]];portConstraint=eastwest;rotatable=0;whiteSpace=wrap;html=1;" vertex="1" parent="Vklywvuwka15X0MRIOZ4-105">
          <mxGeometry y="60" width="140" height="30" as="geometry" />
        </mxCell>
        <mxCell id="Vklywvuwka15X0MRIOZ4-119" value="외부&amp;nbsp; API 접근" style="swimlane;fontStyle=0;childLayout=stackLayout;horizontal=1;startSize=30;horizontalStack=0;resizeParent=1;resizeParentMax=0;resizeLast=0;collapsible=1;marginBottom=0;whiteSpace=wrap;html=1;" vertex="1" parent="1">
          <mxGeometry x="1160" y="320" width="140" height="120" as="geometry" />
        </mxCell>
        <mxCell id="Vklywvuwka15X0MRIOZ4-120" value="클라우드(사용자 파일)" style="text;strokeColor=none;fillColor=none;align=left;verticalAlign=middle;spacingLeft=4;spacingRight=4;overflow=hidden;points=[[0,0.5],[1,0.5]];portConstraint=eastwest;rotatable=0;whiteSpace=wrap;html=1;" vertex="1" parent="Vklywvuwka15X0MRIOZ4-119">
          <mxGeometry y="30" width="140" height="30" as="geometry" />
        </mxCell>
        <mxCell id="Vklywvuwka15X0MRIOZ4-135" value="뉴스&amp;nbsp; API" style="text;strokeColor=none;fillColor=none;align=left;verticalAlign=middle;spacingLeft=4;spacingRight=4;overflow=hidden;points=[[0,0.5],[1,0.5]];portConstraint=eastwest;rotatable=0;whiteSpace=wrap;html=1;" vertex="1" parent="Vklywvuwka15X0MRIOZ4-119">
          <mxGeometry y="60" width="140" height="30" as="geometry" />
        </mxCell>
        <mxCell id="Vklywvuwka15X0MRIOZ4-121" value="OPEN API" style="text;strokeColor=none;fillColor=none;align=left;verticalAlign=middle;spacingLeft=4;spacingRight=4;overflow=hidden;points=[[0,0.5],[1,0.5]];portConstraint=eastwest;rotatable=0;whiteSpace=wrap;html=1;" vertex="1" parent="Vklywvuwka15X0MRIOZ4-119">
          <mxGeometry y="90" width="140" height="30" as="geometry" />
        </mxCell>
        <mxCell id="Vklywvuwka15X0MRIOZ4-123" value="사용자 파일" style="edgeStyle=orthogonalEdgeStyle;rounded=0;orthogonalLoop=1;jettySize=auto;html=1;exitX=0;exitY=0.5;exitDx=0;exitDy=0;entryX=1.005;entryY=0.161;entryDx=0;entryDy=0;entryPerimeter=0;startArrow=classic;startFill=1;" edge="1" parent="1" source="Vklywvuwka15X0MRIOZ4-104" target="Vklywvuwka15X0MRIOZ4-119">
          <mxGeometry relative="1" as="geometry" />
        </mxCell>
        <mxCell id="Vklywvuwka15X0MRIOZ4-124" value="뉴스 데이터 분석 모듈" style="swimlane;fontStyle=0;childLayout=stackLayout;horizontal=1;startSize=30;horizontalStack=0;resizeParent=1;resizeParentMax=0;resizeLast=0;collapsible=1;marginBottom=0;whiteSpace=wrap;html=1;" vertex="1" parent="1">
          <mxGeometry x="1160" y="480" width="140" height="180" as="geometry" />
        </mxCell>
        <mxCell id="Vklywvuwka15X0MRIOZ4-128" value="OPEN API&amp;nbsp; 접근" style="text;strokeColor=none;fillColor=none;align=left;verticalAlign=middle;spacingLeft=4;spacingRight=4;overflow=hidden;points=[[0,0.5],[1,0.5]];portConstraint=eastwest;rotatable=0;whiteSpace=wrap;html=1;" vertex="1" parent="Vklywvuwka15X0MRIOZ4-124">
          <mxGeometry y="30" width="140" height="30" as="geometry" />
        </mxCell>
        <mxCell id="Vklywvuwka15X0MRIOZ4-136" value="뉴스 데이터 관리(크롤링)" style="text;strokeColor=none;fillColor=none;align=left;verticalAlign=middle;spacingLeft=4;spacingRight=4;overflow=hidden;points=[[0,0.5],[1,0.5]];portConstraint=eastwest;rotatable=0;whiteSpace=wrap;html=1;" vertex="1" parent="Vklywvuwka15X0MRIOZ4-124">
          <mxGeometry y="60" width="140" height="30" as="geometry" />
        </mxCell>
        <mxCell id="Vklywvuwka15X0MRIOZ4-129" value="사용자 파일 분석" style="text;strokeColor=none;fillColor=none;align=left;verticalAlign=middle;spacingLeft=4;spacingRight=4;overflow=hidden;points=[[0,0.5],[1,0.5]];portConstraint=eastwest;rotatable=0;whiteSpace=wrap;html=1;" vertex="1" parent="Vklywvuwka15X0MRIOZ4-124">
          <mxGeometry y="90" width="140" height="30" as="geometry" />
        </mxCell>
        <mxCell id="Vklywvuwka15X0MRIOZ4-168" value="뉴스 데이터 요약 (질의1)" style="text;strokeColor=none;fillColor=none;align=left;verticalAlign=middle;spacingLeft=4;spacingRight=4;overflow=hidden;points=[[0,0.5],[1,0.5]];portConstraint=eastwest;rotatable=0;whiteSpace=wrap;html=1;" vertex="1" parent="Vklywvuwka15X0MRIOZ4-124">
          <mxGeometry y="120" width="140" height="30" as="geometry" />
        </mxCell>
        <mxCell id="Vklywvuwka15X0MRIOZ4-126" value="뉴스 데이터 분석&amp;nbsp;&lt;span style=&quot;background-color: transparent; color: light-dark(rgb(0, 0, 0), rgb(255, 255, 255));&quot;&gt;(질의2)&lt;/span&gt;" style="text;strokeColor=none;fillColor=none;align=left;verticalAlign=middle;spacingLeft=4;spacingRight=4;overflow=hidden;points=[[0,0.5],[1,0.5]];portConstraint=eastwest;rotatable=0;whiteSpace=wrap;html=1;" vertex="1" parent="Vklywvuwka15X0MRIOZ4-124">
          <mxGeometry y="150" width="140" height="30" as="geometry" />
        </mxCell>
        <mxCell id="Vklywvuwka15X0MRIOZ4-130" style="edgeStyle=orthogonalEdgeStyle;rounded=0;orthogonalLoop=1;jettySize=auto;html=1;exitX=0;exitY=0.5;exitDx=0;exitDy=0;entryX=0;entryY=0.5;entryDx=0;entryDy=0;" edge="1" parent="1" source="Vklywvuwka15X0MRIOZ4-106" target="Vklywvuwka15X0MRIOZ4-129">
          <mxGeometry relative="1" as="geometry">
            <Array as="points">
              <mxPoint x="1160" y="740" />
              <mxPoint x="1110" y="740" />
              <mxPoint x="1110" y="585" />
            </Array>
          </mxGeometry>
        </mxCell>
        <mxCell id="Vklywvuwka15X0MRIOZ4-146" value="사용자&amp;nbsp;&lt;div&gt;파일&lt;/div&gt;" style="edgeLabel;html=1;align=center;verticalAlign=middle;resizable=0;points=[];" vertex="1" connectable="0" parent="Vklywvuwka15X0MRIOZ4-130">
          <mxGeometry x="-0.1459" y="2" relative="1" as="geometry">
            <mxPoint as="offset" />
          </mxGeometry>
        </mxCell>
        <mxCell id="Vklywvuwka15X0MRIOZ4-139" style="edgeStyle=orthogonalEdgeStyle;rounded=0;orthogonalLoop=1;jettySize=auto;html=1;exitX=0;exitY=0.5;exitDx=0;exitDy=0;entryX=0;entryY=0.5;entryDx=0;entryDy=0;dashed=1;" edge="1" parent="1" source="Vklywvuwka15X0MRIOZ4-121" target="Vklywvuwka15X0MRIOZ4-128">
          <mxGeometry relative="1" as="geometry">
            <Array as="points">
              <mxPoint x="1110" y="425" />
              <mxPoint x="1110" y="525" />
            </Array>
          </mxGeometry>
        </mxCell>
        <mxCell id="Vklywvuwka15X0MRIOZ4-162" value="LLM" style="edgeLabel;html=1;align=center;verticalAlign=middle;resizable=0;points=[];" vertex="1" connectable="0" parent="Vklywvuwka15X0MRIOZ4-139">
          <mxGeometry x="0.0391" y="3" relative="1" as="geometry">
            <mxPoint as="offset" />
          </mxGeometry>
        </mxCell>
        <mxCell id="Vklywvuwka15X0MRIOZ4-149" value="&amp;lt;Interface&amp;gt;&lt;div&gt;인터페이스 모듈&lt;/div&gt;" style="swimlane;fontStyle=0;childLayout=stackLayout;horizontal=1;startSize=30;horizontalStack=0;resizeParent=1;resizeParentMax=0;resizeLast=0;collapsible=1;marginBottom=0;whiteSpace=wrap;html=1;" vertex="1" parent="1">
          <mxGeometry x="1750" y="490" width="140" height="120" as="geometry" />
        </mxCell>
        <mxCell id="Vklywvuwka15X0MRIOZ4-150" value="스마트폰" style="text;strokeColor=none;fillColor=none;align=left;verticalAlign=middle;spacingLeft=4;spacingRight=4;overflow=hidden;points=[[0,0.5],[1,0.5]];portConstraint=eastwest;rotatable=0;whiteSpace=wrap;html=1;" vertex="1" parent="Vklywvuwka15X0MRIOZ4-149">
          <mxGeometry y="30" width="140" height="30" as="geometry" />
        </mxCell>
        <mxCell id="Vklywvuwka15X0MRIOZ4-151" value="태블릿" style="text;strokeColor=none;fillColor=none;align=left;verticalAlign=middle;spacingLeft=4;spacingRight=4;overflow=hidden;points=[[0,0.5],[1,0.5]];portConstraint=eastwest;rotatable=0;whiteSpace=wrap;html=1;" vertex="1" parent="Vklywvuwka15X0MRIOZ4-149">
          <mxGeometry y="60" width="140" height="30" as="geometry" />
        </mxCell>
        <mxCell id="Vklywvuwka15X0MRIOZ4-152" value="PC" style="text;strokeColor=none;fillColor=none;align=left;verticalAlign=middle;spacingLeft=4;spacingRight=4;overflow=hidden;points=[[0,0.5],[1,0.5]];portConstraint=eastwest;rotatable=0;whiteSpace=wrap;html=1;" vertex="1" parent="Vklywvuwka15X0MRIOZ4-149">
          <mxGeometry y="90" width="140" height="30" as="geometry" />
        </mxCell>
        <mxCell id="Vklywvuwka15X0MRIOZ4-155" style="edgeStyle=orthogonalEdgeStyle;rounded=0;orthogonalLoop=1;jettySize=auto;html=1;exitX=1;exitY=0.5;exitDx=0;exitDy=0;startArrow=blockThin;startFill=1;endArrow=blockThin;endFill=1;" edge="1" parent="1" source="Vklywvuwka15X0MRIOZ4-150" target="Vklywvuwka15X0MRIOZ4-85">
          <mxGeometry relative="1" as="geometry">
            <Array as="points">
              <mxPoint x="1920" y="535" />
              <mxPoint x="1920" y="370" />
            </Array>
          </mxGeometry>
        </mxCell>
        <mxCell id="Vklywvuwka15X0MRIOZ4-164" value="뉴스 데이터&lt;div&gt;(요약)&lt;/div&gt;" style="edgeLabel;html=1;align=center;verticalAlign=middle;resizable=0;points=[];" vertex="1" connectable="0" parent="Vklywvuwka15X0MRIOZ4-155">
          <mxGeometry x="0.1316" relative="1" as="geometry">
            <mxPoint as="offset" />
          </mxGeometry>
        </mxCell>
        <mxCell id="Vklywvuwka15X0MRIOZ4-156" style="edgeStyle=orthogonalEdgeStyle;rounded=0;orthogonalLoop=1;jettySize=auto;html=1;exitX=1;exitY=0.5;exitDx=0;exitDy=0;startArrow=blockThin;startFill=1;endArrow=classicThin;endFill=1;" edge="1" parent="1" source="Vklywvuwka15X0MRIOZ4-151" target="Vklywvuwka15X0MRIOZ4-89">
          <mxGeometry relative="1" as="geometry">
            <Array as="points">
              <mxPoint x="1935" y="565" />
              <mxPoint x="1935" y="520" />
            </Array>
          </mxGeometry>
        </mxCell>
        <mxCell id="Vklywvuwka15X0MRIOZ4-165" value="뉴스 데이터&lt;div&gt;(요약)&lt;/div&gt;" style="edgeLabel;html=1;align=center;verticalAlign=middle;resizable=0;points=[];" vertex="1" connectable="0" parent="Vklywvuwka15X0MRIOZ4-156">
          <mxGeometry x="-0.1661" relative="1" as="geometry">
            <mxPoint x="5" y="11" as="offset" />
          </mxGeometry>
        </mxCell>
        <mxCell id="Vklywvuwka15X0MRIOZ4-157" style="edgeStyle=orthogonalEdgeStyle;rounded=0;orthogonalLoop=1;jettySize=auto;html=1;exitX=1;exitY=0.5;exitDx=0;exitDy=0;entryX=0.003;entryY=0.172;entryDx=0;entryDy=0;entryPerimeter=0;startArrow=classicThin;startFill=1;endArrow=classicThin;endFill=1;" edge="1" parent="1" source="Vklywvuwka15X0MRIOZ4-152" target="Vklywvuwka15X0MRIOZ4-93">
          <mxGeometry relative="1" as="geometry" />
        </mxCell>
        <mxCell id="Vklywvuwka15X0MRIOZ4-166" value="뉴스 데이터&lt;div&gt;(요약)&lt;/div&gt;" style="edgeLabel;html=1;align=center;verticalAlign=middle;resizable=0;points=[];" vertex="1" connectable="0" parent="Vklywvuwka15X0MRIOZ4-157">
          <mxGeometry x="0.1163" y="4" relative="1" as="geometry">
            <mxPoint as="offset" />
          </mxGeometry>
        </mxCell>
        <mxCell id="Vklywvuwka15X0MRIOZ4-158" style="edgeStyle=orthogonalEdgeStyle;rounded=0;orthogonalLoop=1;jettySize=auto;html=1;exitX=1;exitY=0.5;exitDx=0;exitDy=0;startArrow=diamond;startFill=1;endArrow=diamond;endFill=1;" edge="1" parent="1" source="Vklywvuwka15X0MRIOZ4-113" target="Vklywvuwka15X0MRIOZ4-149">
          <mxGeometry relative="1" as="geometry">
            <Array as="points">
              <mxPoint x="1700" y="505" />
              <mxPoint x="1700" y="505" />
            </Array>
          </mxGeometry>
        </mxCell>
        <mxCell id="Vklywvuwka15X0MRIOZ4-163" value="뉴스 데이터&lt;div&gt;(요약)&lt;/div&gt;" style="edgeLabel;html=1;align=center;verticalAlign=middle;resizable=0;points=[];" vertex="1" connectable="0" parent="Vklywvuwka15X0MRIOZ4-158">
          <mxGeometry x="-0.0445" y="-3" relative="1" as="geometry">
            <mxPoint as="offset" />
          </mxGeometry>
        </mxCell>
        <mxCell id="Vklywvuwka15X0MRIOZ4-159" style="edgeStyle=orthogonalEdgeStyle;rounded=0;orthogonalLoop=1;jettySize=auto;html=1;exitX=0;exitY=0.5;exitDx=0;exitDy=0;entryX=0;entryY=0.5;entryDx=0;entryDy=0;dashed=1;" edge="1" parent="1" source="Vklywvuwka15X0MRIOZ4-135" target="Vklywvuwka15X0MRIOZ4-136">
          <mxGeometry relative="1" as="geometry">
            <Array as="points">
              <mxPoint x="1070" y="395" />
              <mxPoint x="1070" y="555" />
            </Array>
          </mxGeometry>
        </mxCell>
        <mxCell id="Vklywvuwka15X0MRIOZ4-160" value="뉴스데이터&lt;div&gt;(원본)&lt;/div&gt;" style="edgeLabel;html=1;align=center;verticalAlign=middle;resizable=0;points=[];" vertex="1" connectable="0" parent="Vklywvuwka15X0MRIOZ4-159">
          <mxGeometry x="0.0435" y="-1" relative="1" as="geometry">
            <mxPoint as="offset" />
          </mxGeometry>
        </mxCell>
        <mxCell id="Vklywvuwka15X0MRIOZ4-161" value="뉴스 데이터&lt;div&gt;(요약)&lt;/div&gt;" style="edgeStyle=orthogonalEdgeStyle;rounded=0;orthogonalLoop=1;jettySize=auto;html=1;exitX=1;exitY=0.5;exitDx=0;exitDy=0;" edge="1" parent="1" source="Vklywvuwka15X0MRIOZ4-126" target="Vklywvuwka15X0MRIOZ4-140">
          <mxGeometry relative="1" as="geometry">
            <Array as="points">
              <mxPoint x="1395" y="645" />
              <mxPoint x="1395" y="535" />
            </Array>
          </mxGeometry>
        </mxCell>
        <mxCell id="Vklywvuwka15X0MRIOZ4-169" style="edgeStyle=orthogonalEdgeStyle;rounded=0;orthogonalLoop=1;jettySize=auto;html=1;exitX=1;exitY=0.5;exitDx=0;exitDy=0;entryX=0;entryY=0.5;entryDx=0;entryDy=0;" edge="1" parent="1" source="Vklywvuwka15X0MRIOZ4-106" target="Vklywvuwka15X0MRIOZ4-83">
          <mxGeometry relative="1" as="geometry">
            <Array as="points">
              <mxPoint x="1420" y="745" />
              <mxPoint x="1420" y="565" />
            </Array>
          </mxGeometry>
        </mxCell>
        <mxCell id="Vklywvuwka15X0MRIOZ4-170" value="사용자 파일" style="edgeLabel;html=1;align=center;verticalAlign=middle;resizable=0;points=[];" vertex="1" connectable="0" parent="Vklywvuwka15X0MRIOZ4-169">
          <mxGeometry x="-0.1878" y="-4" relative="1" as="geometry">
            <mxPoint as="offset" />
          </mxGeometry>
        </mxCell>
      </root>
    </mxGraphModel>
  </diagram>
</mxfile>
